<svg xmlns="http://www.w3.org/2000/svg" xmlns:xlink="http://www.w3.org/1999/xlink" version="1.1" id="Layer_1" x="0px" y="0px" style="enable-background:new 0 0 1080 1080;" xml:space="preserve" viewBox="499.7 116 341.2 324.8">
<style type="text/css">
	.st0{fill:#DD6E42;}
</style>
<polygon class="st0" points="524.2,284.8 504.4,284.8 507.7,258.5 672.3,116 662.3,201.9 621.7,201.9 "/>
<polygon class="st0" points="519.7,288 499.7,304.6 499.7,311.8 583.8,314.5 612.8,290.8 "/>
<polygon class="st0" points="570.2,342.3 618.4,344.1 611.4,403.1 "/>
<polygon class="st0" points="618.4,413.7 636.3,440.8 664.4,211.1 643.6,212.2 "/>
<path class="st0" d="M733,239.3c-13.1-0.1-32.9,2.3-43.6,10.6c12.2,10.1,27.3,8.1,43.4,8.1s20.2,16.2,17.2,24.9  c-25.3-4.3-82.6,7.8-82.6,27.1c-0.1,19.3,19.1,26,26.5,26.6c7.4,0.6,61.9,2.9,61.9,2.9s8.7-64.1,10.8-83.6  C768.5,236.4,733,239.3,733,239.3z M707.3,324c0.2-4.3,6.3-21.4,29.5-20.7C734.4,314.2,722.2,323.7,707.3,324z"/>
<polygon class="st0" points="817.1,267.5 839.4,268.4 828.2,349.2 805.5,347.2 "/>
<path class="st0" d="M820.7,240.3v9.3c0,0,3.1,5.2,8.1,5.2c5,0,12.1-4,12.1-7.8s0-8,0-8s-4.9,3.1-10.1,3.1  C825.6,242.2,820.7,240.3,820.7,240.3z"/>
</svg>